<svg id="Layer_1" enable-background="new 0 0 512 512" height="512" viewBox="0 0 512 512" width="512" xmlns="http://www.w3.org/2000/svg"><g><g><path d="m324.5 68.5c-46.426 0-90.975 17.096-125.441 48.139-33.063 29.781-54.372 70.066-60.334 113.861h-42.673c-4.143 0-7.5 3.358-7.5 7.5s3.357 7.5 7.5 7.5h158.448c3.424 0 6.412 2.06 7.423 5.086l9.334 28.482c-1.863-.37-3.787-.568-5.757-.568h-236c-2.023 0-3.999.205-5.909.595l9.473-28.47c1.023-3.066 4.012-5.125 7.436-5.125h23.365c4.143 0 7.5-3.358 7.5-7.5s-3.357-7.5-7.5-7.5h-23.365c-9.888 0-18.593 6.179-21.666 15.382l-17.21 51.72c-.203.61-1.624 7.431-1.624 10.398v76c0 16.267 13.233 29.5 29.5 29.5h193.292c.197.156.403.304.619.442 30.153 19.337 65.109 29.558 101.089 29.558 19.147 0 38.036-2.877 56.142-8.552 3.952-1.239 6.152-5.447 4.914-9.4s-5.45-6.151-9.4-4.914c-16.652 5.219-34.031 7.865-51.655 7.865-24.459 0-48.394-5.147-70.416-15h11.415c16.267 0 29.5-13.233 29.5-29.5v-76c0-3.612-.656-7.074-1.849-10.275-.01-.03-.014-.061-.024-.09l-16.963-51.76c-3.071-9.196-11.776-15.375-21.664-15.375h-100.617c5.857-39.496 25.304-75.774 55.215-102.715 29.846-26.88 67.912-42.389 107.902-44.117v172.333c.028 2.57.818 4.826 4.617 6.924l158.722 67.208c-15.753 33.16-42.008 61.004-75.874 78.756-3.669 1.923-5.084 6.456-3.161 10.125 1.34 2.557 3.949 4.02 6.648 4.02 1.174 0 2.364-.276 3.476-.859 62.035-32.517 100.572-96.191 100.572-166.174 0-103.388-84.112-187.5-187.5-187.5zm-44.5 315.5c0 7.995-6.505 14.5-14.5 14.5h-236c-7.995 0-14.5-6.505-14.5-14.5v-76c0-7.995 6.505-14.5 14.5-14.5h236c7.995 0 14.5 6.505 14.5 14.5zm187.538-224.321-14.044 8.594c-3.532 2.162-4.645 6.779-2.482 10.312 1.415 2.312 3.88 3.586 6.404 3.586 1.335 0 2.687-.356 3.908-1.104l14.055-8.6c13.766 24.765 21.621 53.247 21.621 83.533 0 4.487-.19 8.942-.53 13.366l-149.684-18.21 87.256-53.393c3.533-2.162 4.645-6.779 2.482-10.312s-6.78-4.644-10.313-2.483l-94.211 57.649v-158.944c56.373 2.424 105.824 32.022 135.538 76.006zm-91.013 110.205 118.15 14.374c-1.815 11.016-4.683 21.737-8.518 32.047z"/><path d="m257.5 308.5h-220c-4.143 0-7.5 3.358-7.5 7.5v60c0 4.142 3.357 7.5 7.5 7.5h220c4.143 0 7.5-3.358 7.5-7.5v-60c0-4.142-3.357-7.5-7.5-7.5zm-116.5 15v9.5c0 4.136-3.364 7.5-7.5 7.5s-7.5-3.364-7.5-7.5v-9.5zm-50.007 0v9.5c0 4.136-3.364 7.5-7.5 7.5s-7.5-3.364-7.5-7.5v-9.5zm159.007 45h-205v-45h15.993v9.5c0 12.407 10.094 22.5 22.5 22.5s22.5-10.093 22.5-22.5v-9.5h5.007v9.5c0 12.407 10.094 22.5 22.5 22.5s22.5-10.093 22.5-22.5v-9.5h94z"/><path d="m277.731 142.899h-15.73c-4.143 0-7.5 3.358-7.5 7.5v54.155c0 1.995.795 3.908 2.209 5.315 1.405 1.4 3.308 2.185 5.291 2.185h.033c.002 0 14.46-.064 18.445-.064 12.173 0 22.076-9.904 22.076-22.077 0-6.707-3.01-12.72-7.746-16.772 1.817-3.007 2.883-6.517 2.883-10.28.001-11.007-8.954-19.962-19.961-19.962zm0 15c2.736 0 4.962 2.226 4.962 4.961 0 2.736-2.226 4.961-4.962 4.961-1.152 0-3.318.006-5.683.015h-2.547v-9.937zm2.748 39.091c-2.036 0-6.796.017-10.979.033v-14.178c.852-.003 1.714-.006 2.552-.009h8.426c3.901 0 7.076 3.175 7.076 7.077.002 3.902-3.173 7.077-7.075 7.077z"/><path d="m224.235 212.055c4.143 0 7.5-3.358 7.5-7.5v-46.655h7.515c4.143 0 7.5-3.358 7.5-7.5s-3.357-7.5-7.5-7.5h-29.908c-4.143 0-7.5 3.358-7.5 7.5s3.357 7.5 7.5 7.5h7.394v46.655c-.001 4.142 3.357 7.5 7.499 7.5z"/></g></g></svg>