<svg id="Layer_1" enable-background="new 0 0 512 512" height="512" viewBox="0 0 512 512" width="512" xmlns="http://www.w3.org/2000/svg"><g><g><path d="m504.5 263.5c4.142 0 7.5-3.358 7.5-7.5v-34c0-3.612-.656-7.073-1.849-10.275-.01-.03-.014-.061-.024-.091l-16.962-51.756c-2.064-6.194-6.786-11.066-12.692-13.556.012-.354.027-.707.027-1.064v-113.517c0-17.502-14.239-31.741-31.741-31.741h-113.518c-17.502 0-31.741 14.239-31.741 31.741v113.518c0 .222.012.442.017.663-6.363 2.323-11.477 7.355-13.683 13.96l-8.193 24.618h-51.407l-8.069-24.622c-2.064-6.194-6.786-11.066-12.692-13.556.012-.354.027-.707.027-1.064v-113.517c0-17.502-14.239-31.741-31.741-31.741h-113.518c-17.502 0-31.741 14.239-31.741 31.741v31.759c0 4.142 3.358 7.5 7.5 7.5s7.5-3.358 7.5-7.5v-31.759c0-9.231 7.51-16.741 16.741-16.741h113.518c9.231 0 16.741 7.51 16.741 16.741v113.518c0 9.231-7.51 16.741-16.741 16.741h-113.518c-9.231 0-16.741-7.51-16.741-16.741v-48.643c0-4.142-3.358-7.5-7.5-7.5s-7.5 3.358-7.5 7.5v48.643c0 .222.012.442.017.663-6.363 2.323-11.477 7.355-13.683 13.96l-17.21 51.72c-.203.61-1.624 7.431-1.624 10.398v76c0 16.267 13.234 29.5 29.5 29.5h138v2.259c0 .284.014.565.022.848-6.131 2.403-11.038 7.348-13.188 13.775l-17.21 51.72c-.203.61-1.624 7.431-1.624 10.398v76c0 16.267 13.233 29.5 29.5 29.5h182c16.267 0 29.5-13.233 29.5-29.5v-76c0-3.612-.656-7.074-1.849-10.275-.009-.03-.014-.061-.024-.09l-16.964-51.763c-2.147-6.419-7.053-11.362-13.184-13.764.007-.283.021-.564.021-.848v-2.26h138c16.266 0 29.5-13.234 29.5-29.5v-10.315c0-4.142-3.358-7.5-7.5-7.5s-7.5 3.358-7.5 7.5v10.315c0 7.995-6.505 14.5-14.5 14.5h-138v-15h130c4.142 0 7.5-3.358 7.5-7.5v-60c0-4.142-3.358-7.5-7.5-7.5h-130v-6.259c0-3.032-.436-5.962-1.234-8.741h139.234c7.995 0 14.5 6.505 14.5 14.5v34c0 4.142 3.358 7.5 7.5 7.5zm-186-231.759c0-9.231 7.51-16.741 16.741-16.741h113.518c9.231 0 16.741 7.51 16.741 16.741v113.518c0 9.231-7.51 16.741-16.741 16.741h-113.518c-9.231 0-16.741-7.51-16.741-16.741zm11 184.5v113.518c0 9.231-7.51 16.741-16.741 16.741h-113.518c-9.231 0-16.741-7.51-16.741-16.741v-113.518c0-9.231 7.51-16.741 16.741-16.741h25.532c.008 0 .016.002.025.002.008 0 .017-.002.025-.002h62.203c.008 0 .016.002.024.002s.016-.002.025-.002h25.683c9.232 0 16.742 7.51 16.742 16.741zm-253.507 21.259h15v9.5c0 4.136-3.364 7.5-7.5 7.5s-7.5-3.364-7.5-7.5zm7.5 32c12.407 0 22.5-10.093 22.5-22.5v-9.5h5.007v9.5c0 12.407 10.093 22.5 22.5 22.5s22.5-10.093 22.5-22.5v-9.5h11.5v45h-122.5v-45h15.993v9.5c0 12.407 10.093 22.5 22.5 22.5zm42.507-32h15v9.5c0 4.136-3.364 7.5-7.5 7.5s-7.5-3.364-7.5-7.5zm-92.936-72.875c.583-1.746 1.816-3.147 3.39-4.045 5.415 9.781 15.839 16.42 27.787 16.42h113.518c11.758 0 22.036-6.432 27.521-15.958 1.223.889 2.165 2.111 2.643 3.544l6.526 19.914h-15.208c-8.064 0-15.431 3.028-21.036 8h-148.705c-2.023 0-3.999.205-5.909.595zm-3.564 147.875c-7.995 0-14.5-6.505-14.5-14.5v-76c0-7.995 6.505-14.5 14.5-14.5h139.234c-.798 2.779-1.234 5.709-1.234 8.741v6.259h-130c-4.142 0-7.5 3.358-7.5 7.5v60c0 4.142 3.358 7.5 7.5 7.5h130v15zm332 170c0 7.995-6.505 14.5-14.5 14.5h-182c-7.995 0-14.5-6.505-14.5-14.5v-76c0-7.995 6.505-14.5 14.5-14.5h182c7.995 0 14.5 6.505 14.5 14.5zm-18.077-133.414 9.334 28.482c-1.863-.37-3.787-.568-5.757-.568h-182c-2.023 0-3.999.205-5.909.595l9.472-28.466c.537-1.605 1.622-2.924 3.019-3.828 5.449 9.658 15.802 16.199 27.66 16.199h113.518c11.859 0 22.213-6.542 27.661-16.202 1.392.899 2.473 2.206 3.002 3.788zm123.577-66.586h-122.5v-15.349c3.013 1.5 6.405 2.349 9.993 2.349 12.407 0 22.5-10.093 22.5-22.5v-9.5h5.007v9.5c0 12.407 10.093 22.5 22.5 22.5s22.5-10.093 22.5-22.5v-9.5h40zm-55-45v9.5c0 4.136-3.364 7.5-7.5 7.5s-7.5-3.364-7.5-7.5v-9.5zm-50.007 0v9.5c0 4.136-3.364 7.5-7.5 7.5s-7.5-3.364-7.5-7.5v-9.5zm-28.198-45c-5.605-4.972-12.972-8-21.036-8h-15.309l6.614-19.875c.583-1.746 1.816-3.147 3.39-4.045 5.415 9.781 15.838 16.42 27.787 16.42h113.518c11.758 0 22.036-6.432 27.521-15.958 1.223.889 2.165 2.111 2.643 3.544l9.335 28.482c-1.863-.37-3.787-.568-5.757-.568z"/><path d="m339 407h-166c-4.142 0-7.5 3.358-7.5 7.5v60c0 4.142 3.358 7.5 7.5 7.5h114.868c4.142 0 7.5-3.358 7.5-7.5s-3.358-7.5-7.5-7.5h-107.368v-45h15.993v9.5c0 12.407 10.093 22.5 22.5 22.5s22.5-10.093 22.5-22.5v-9.5h5.007v9.5c0 12.407 10.093 22.5 22.5 22.5s22.5-10.093 22.5-22.5v-9.5h40v45h-11.446c-4.142 0-7.5 3.358-7.5 7.5s3.358 7.5 7.5 7.5h18.946c4.142 0 7.5-3.358 7.5-7.5v-60c0-4.142-3.358-7.5-7.5-7.5zm-112.507 24.5c0 4.136-3.364 7.5-7.5 7.5s-7.5-3.364-7.5-7.5v-9.5h15zm50.007 0c0 4.136-3.364 7.5-7.5 7.5s-7.5-3.364-7.5-7.5v-9.5h15z"/><path d="m305 214.5h-98c-5.238 0-9.5 4.262-9.5 9.5v98c0 5.238 4.262 9.5 9.5 9.5h98c5.238 0 9.5-4.262 9.5-9.5v-98c0-5.238-4.262-9.5-9.5-9.5zm-5.5 102h-87v-87h87z"/><path d="m235.255 303.049c1.772.965 3.721 1.444 5.667 1.444 2.244 0 4.482-.637 6.438-1.9l30.154-19.481c3.436-2.22 5.487-6 5.487-10.111s-2.051-7.892-5.487-10.111l-30.153-19.48c-3.65-2.359-8.289-2.535-12.104-.457-3.858 2.101-6.255 6.15-6.255 10.568v38.962c-.002 4.416 2.395 8.465 6.253 10.566zm8.745-43.953 21.522 13.904-21.522 13.904z"/><path d="m343 147h98c5.238 0 9.5-4.262 9.5-9.5v-98c0-5.238-4.262-9.5-9.5-9.5h-98c-5.238 0-9.5 4.262-9.5 9.5v98c0 5.238 4.262 9.5 9.5 9.5zm5.5-102h87v87h-87z"/><path d="m413.449 56.787h-39.07c-4.142 0-7.5 3.358-7.5 7.5v37.448h-.593c-4.142 0-7.5 3.358-7.5 7.5s3.358 7.5 7.5 7.5h8.093c4.142 0 7.5-3.358 7.5-7.5v-37.448h24.07v29.948h-1.988c-4.142 0-7.5 3.358-7.5 7.5s3.358 7.5 7.5 7.5h9.488c4.142 0 7.5-3.358 7.5-7.5v-44.948c0-4.142-3.358-7.5-7.5-7.5z"/><path d="m72 147h98c5.238 0 9.5-4.262 9.5-9.5v-98c0-5.238-4.262-9.5-9.5-9.5h-98c-5.238 0-9.5 4.262-9.5 9.5v98c0 5.238 4.262 9.5 9.5 9.5zm5.5-15v-19.573h87v19.573zm39.879-34.573h-31.846l15.947-20.082 15.923 20.051zm19.204 0-.025-.031 9.942-12.52 9.967 12.551zm27.917-52.427v38.422l-10.561-13.298c-1.813-2.283-4.524-3.592-7.439-3.592s-5.626 1.309-7.44 3.592l-12.079 15.211-18.061-22.743c-1.813-2.282-4.524-3.592-7.44-3.592-2.915 0-5.626 1.309-7.439 3.592l-16.541 20.83v-38.422z"/></g></g></svg>