<svg id="Layer_1" enable-background="new 0 0 512 512" height="512" viewBox="0 0 512 512" width="512" xmlns="http://www.w3.org/2000/svg"><g><g><path d="m396 452c4.143 0 7.5-3.358 7.5-7.5v-38c0-3.612-.656-7.074-1.849-10.275-.009-.03-.014-.061-.024-.09l-16.963-51.76c-3.071-9.196-11.776-15.375-21.664-15.375h-171.007c-4.142 0-7.5 3.358-7.5 7.5s3.358 7.5 7.5 7.5h171.007c3.424 0 6.412 2.06 7.423 5.086l9.334 28.482c-1.863-.37-3.787-.568-5.757-.568h-236c-2.023 0-4 .205-5.909.595l9.473-28.47c1.024-3.065 4.012-5.125 7.436-5.125h10.96c4.142 0 7.5-3.358 7.5-7.5s-3.358-7.5-7.5-7.5h-10.96c-9.887 0-18.593 6.179-21.666 15.382l-17.21 51.72c-.203.61-1.624 7.431-1.624 10.398v76c0 16.267 13.233 29.5 29.5 29.5h236c16.267 0 29.5-13.233 29.5-29.5v-6.536c0-4.142-3.357-7.5-7.5-7.5s-7.5 3.358-7.5 7.5v6.536c0 7.995-6.505 14.5-14.5 14.5h-236c-7.995 0-14.5-6.505-14.5-14.5v-76c0-7.995 6.505-14.5 14.5-14.5h236c7.995 0 14.5 6.505 14.5 14.5v38c0 4.142 3.357 7.5 7.5 7.5z"/><path d="m146 407c-4.142 0-7.5 3.358-7.5 7.5v60c0 4.142 3.358 7.5 7.5 7.5h220c4.143 0 7.5-3.358 7.5-7.5v-60c0-4.142-3.357-7.5-7.5-7.5zm103.5 15v9.5c0 4.136-3.364 7.5-7.5 7.5s-7.5-3.364-7.5-7.5v-9.5zm-50.007 0v9.5c0 4.136-3.364 7.5-7.5 7.5s-7.5-3.364-7.5-7.5v-9.5zm159.007 45h-205v-45h15.993v9.5c0 12.407 10.093 22.5 22.5 22.5s22.5-10.093 22.5-22.5v-9.5h5.007v9.5c0 12.407 10.093 22.5 22.5 22.5s22.5-10.093 22.5-22.5v-9.5h94z"/><path d="m209.792 244.129c8.425 14.44 13.616 27.743 17.788 38.431 7.073 18.125 12.66 32.44 28.42 32.44 16.265 0 21.678-14.108 28.53-31.97 4.087-10.652 9.173-23.909 17.723-38.979 7.021-12.375 16.519-22.416 26.574-33.045 21.471-22.697 43.673-46.166 43.673-93.875 0-17.754-3.853-34.811-11.45-50.696-1.786-3.737-6.266-5.315-10.002-3.53-3.736 1.787-5.316 6.265-3.529 10.002 6.623 13.849 9.981 28.729 9.981 44.225 0 41.738-19.221 62.056-39.569 83.566-10.229 10.812-20.806 21.993-28.725 35.952-9.104 16.048-14.414 29.887-18.68 41.007-6.478 16.885-9.034 22.343-14.526 22.343-5.037 0-7.962-6.278-14.446-22.893-4.361-11.175-9.79-25.083-18.805-40.536-8.22-14.09-18.761-25.231-28.955-36.006-20.207-21.358-39.293-41.532-39.293-83.434-.001-56.315 45.532-102.131 101.499-102.131 28.443 0 55.767 12.127 74.963 33.273 2.783 3.068 7.527 3.295 10.594.512 3.067-2.784 3.296-7.527.512-10.594-22.033-24.271-53.404-38.191-86.069-38.191-64.238 0-116.5 52.544-116.5 117.131 0 47.874 22.062 71.192 43.397 93.743 10.052 10.625 19.547 20.66 26.895 33.255z"/><path d="m300.087 97.09-54.092 54.306-34.286-31.899c-3.033-2.821-7.779-2.651-10.6.382s-2.65 7.778.382 10.6l39.593 36.837c1.442 1.342 3.276 2.009 5.108 2.009 1.927 0 3.852-.739 5.315-2.207l59.207-59.442c2.924-2.935 2.914-7.684-.021-10.607-2.935-2.922-7.683-2.915-10.606.021z"/></g></g></svg>