<svg id="Layer_1" enable-background="new 0 0 512 512" height="512" viewBox="0 0 512 512" width="512" xmlns="http://www.w3.org/2000/svg"><g><g><path d="m146 407c-4.143 0-7.5 3.358-7.5 7.5v60c0 4.142 3.357 7.5 7.5 7.5h220c4.143 0 7.5-3.358 7.5-7.5v-60c0-4.142-3.357-7.5-7.5-7.5zm103.5 15v9.5c0 4.136-3.364 7.5-7.5 7.5s-7.5-3.364-7.5-7.5v-9.5zm-50.007 0v9.5c0 4.136-3.364 7.5-7.5 7.5s-7.5-3.364-7.5-7.5v-9.5zm159.007 45h-205v-45h15.993v9.5c0 12.407 10.094 22.5 22.5 22.5s22.5-10.093 22.5-22.5v-9.5h5.007v9.5c0 12.407 10.094 22.5 22.5 22.5s22.5-10.093 22.5-22.5v-9.5h94z"/><path d="m504.5 189.804h-110.314c5.129-13.985 9.503-29.004 12.798-45h56.406c4.143 0 7.5-3.358 7.5-7.5s-3.357-7.5-7.5-7.5h-53.695c2.248-14.416 3.608-29.557 3.804-45.441.076-6.225-4.938-11.434-11.177-11.611-15.834-.451-31.876-3.874-47.682-10.172-3.842-1.532-8.21.342-9.743 4.191-1.534 3.848.343 8.21 4.19 9.744 16.302 6.497 32.888 10.222 49.352 11.091-1.951 83.594-37.184 145.767-66.624 183.383-33.888 43.299-68.554 65.345-75.81 66.968-4.232-1.026-24.864-11.983-52.154-39.711-2.907-2.952-7.656-2.99-10.606-.084-2.952 2.905-2.99 7.654-.085 10.606 7.223 7.338 14.723 14.199 21.987 20.233h-66.147c-9.888 0-18.593 6.179-21.666 15.382l-17.21 51.72c-.203.61-1.624 7.431-1.624 10.398v76c0 16.267 13.233 29.5 29.5 29.5h236c16.267 0 29.5-13.233 29.5-29.5v-10.815c0-4.142-3.357-7.5-7.5-7.5s-7.5 3.358-7.5 7.5v10.814c0 7.995-6.505 14.5-14.5 14.5h-236c-7.995 0-14.5-6.505-14.5-14.5v-76c0-7.995 6.505-14.5 14.5-14.5h236c7.995 0 14.5 6.505 14.5 14.5v32.813c0 4.142 3.357 7.5 7.5 7.5s7.5-3.358 7.5-7.5v-32.813c0-3.612-.656-7.074-1.849-10.275-.009-.03-.014-.061-.024-.09l-16.963-51.76c-3.071-9.196-11.776-15.375-21.664-15.375h-66.286c12.165-10.128 28.362-25.433 45.216-46.616 4.28-5.379 8.674-11.252 13.077-17.58h69.973c4.143 0 7.5-3.358 7.5-7.5s-3.357-7.5-7.5-7.5h-60.115c8.276-13.341 16.299-28.357 23.371-45h116.264c4.143 0 7.5-3.358 7.5-7.5s-3.357-7.5-7.5-7.5zm-134.077 159.282 9.334 28.482c-1.863-.37-3.787-.568-5.757-.568h-236c-2.023 0-3.999.205-5.909.595l9.473-28.47c1.024-3.065 4.012-5.125 7.436-5.125h85.843c.156 0 .309-.014.463-.023 8.831 5.676 16.207 9.023 20.694 9.023 5.223 0 13.29-4.288 20.607-9.024.156.01.31.024.468.024h85.925c3.424 0 6.412 2.06 7.423 5.086z"/><path d="m171.393 284.345c1.482 1.835 3.651 2.788 5.84 2.788 1.654 0 3.32-.545 4.708-1.666 3.222-2.603 3.725-7.325 1.122-10.547-30.736-38.055-67.517-101.275-69.503-187.314 55.614-2.917 97.403-37.317 122.574-58.039 7.433-6.118 16.64-13.698 19.866-14.532 3.227.834 12.434 8.414 19.866 14.532 11.553 9.511 25.932 21.348 43.558 32.028 3.542 2.146 8.154 1.016 10.301-2.527 2.146-3.542 1.016-8.154-2.527-10.301-16.7-10.121-30.616-21.576-41.798-30.781-13.626-11.216-21.849-17.986-29.4-17.986s-15.774 6.77-29.399 17.986c-25.772 21.216-64.72 53.278-116.924 54.765-6.238.178-11.252 5.387-11.176 11.612.194 15.89 1.542 31.029 3.771 45.441h-53.662c-4.143 0-7.5 3.358-7.5 7.5s3.357 7.5 7.5 7.5h56.35c3.271 15.999 7.621 31.011 12.726 45h-110.186c-4.143 0-7.5 3.358-7.5 7.5s3.357 7.5 7.5 7.5h116.092c7.034 16.624 15.03 31.637 23.306 45h-59.878c-4.143 0-7.5 3.358-7.5 7.5s3.357 7.5 7.5 7.5h69.731c4.926 7.086 9.854 13.613 14.642 19.541z"/><path d="m266.099 40.955c-1.523-1.253-3.142-2.586-4.742-3.888-3.103-2.519-7.609-2.52-10.72.006-1.546 1.258-3.117 2.55-4.601 3.771l-.369.304c-23.845 19.63-59.879 49.294-108.928 58.716-4.349.832-7.3 4.78-6.865 9.18 6.543 66.589 34.94 116.759 57.61 147.121 22.89 30.656 48.294 52.593 64.437 62.899 1.23.786 2.633 1.179 4.036 1.179 1.409 0 2.819-.397 4.055-1.19 16.138-10.369 41.557-32.421 64.502-63.215 22.651-30.397 51.03-80.539 57.6-146.791.434-4.4-2.515-8.348-6.859-9.184-49.047-9.424-85.078-39.086-108.922-58.714zm46.387 205.919c-23.631 31.714-46.728 49.875-56.542 56.817-9.813-6.904-32.886-24.955-56.44-56.501-20.866-27.945-46.84-73.547-54.07-133.825 49.858-11.318 87.146-42.015 109.765-60.635l.368-.303c.144-.118.288-.237.434-.356.19.156.379.312.566.466l.233.192c22.618 18.619 59.899 49.313 109.749 60.632-7.255 59.964-33.213 105.532-54.063 133.513z"/><path d="m224.29 105.36c-8.893 8.638-13.79 20.22-13.79 32.614 0 16.415 8.78 31.446 23 39.538v53.499c0 12.401 10.094 22.49 22.5 22.49s22.5-10.089 22.5-22.49v-53.5c14.917-8.5 23.882-24.882 22.929-42.107-1.292-23.366-20.653-42.203-44.077-42.884-12.429-.347-24.165 4.199-33.062 12.84zm32.626 2.154c15.697.456 28.671 13.071 29.536 28.718.655 11.849-5.682 23.101-16.145 28.668-4.199 2.235-6.808 6.599-6.808 11.39v54.72c0 4.13-3.364 7.49-7.5 7.49s-7.5-3.36-7.5-7.49v-54.66c0-4.828-2.609-9.216-6.812-11.452-9.985-5.314-16.188-15.631-16.188-26.924 0-8.304 3.282-16.065 9.241-21.854 5.744-5.579 13.26-8.62 21.255-8.62.307 0 .614.004.921.014z"/></g></g></svg>