<svg id="Layer_1" enable-background="new 0 0 512 512" height="512" viewBox="0 0 512 512" width="512" xmlns="http://www.w3.org/2000/svg"><g><g><path d="m424.5 255h70c9.649 0 17.5-7.851 17.5-17.5v-70c0-9.649-7.851-17.5-17.5-17.5h-70c-9.649 0-17.5 7.851-17.5 17.5v28.872h-55.23c-2.885 0-5.514 1.654-6.762 4.255l-13.138 27.373h-36.87v-30.5c0-8.736-3.82-16.594-9.874-22 6.054-5.406 9.874-13.264 9.874-22v-35.023h19.846c3.047 0 5.791-1.843 6.943-4.664l19.326-47.313h23.385v27.5c0 9.649 7.851 17.5 17.5 17.5h70c9.649 0 17.5-7.851 17.5-17.5v-70c0-9.649-7.851-17.5-17.5-17.5h-70c-9.649 0-17.5 7.851-17.5 17.5v27.5h-28.423c-3.047 0-5.791 1.843-6.943 4.664l-19.326 47.313h-14.808v-25.977c0-3.612-.656-7.074-1.849-10.275-.01-.03-.014-.061-.024-.09l-16.963-51.76c-3.071-9.196-11.776-15.375-21.664-15.375h-158.632c-4.143 0-7.5 3.358-7.5 7.5s3.357 7.5 7.5 7.5h158.632c3.424 0 6.412 2.06 7.423 5.086l9.334 28.482c-1.863-.37-3.787-.568-5.757-.568h-236c-2.023 0-3.999.205-5.909.595l9.473-28.47c1.024-3.065 4.012-5.125 7.436-5.125h23.275c4.143 0 7.5-3.358 7.5-7.5s-3.357-7.5-7.5-7.5h-23.275c-9.888 0-18.593 6.179-21.666 15.382l-17.21 51.72c-.203.61-1.624 7.431-1.624 10.398v76c0 8.736 3.82 16.594 9.874 22-6.054 5.406-9.874 13.264-9.874 22v76c0 8.736 3.82 16.594 9.874 22-6.054 5.406-9.874 13.264-9.874 22v33.991c0 4.142 3.357 7.5 7.5 7.5s7.5-3.358 7.5-7.5v-33.991c0-7.995 6.505-14.5 14.5-14.5h236c7.995 0 14.5 6.505 14.5 14.5v76c0 7.995-6.505 14.5-14.5 14.5h-236c-7.995 0-14.5-6.505-14.5-14.5v-9.637c0-4.142-3.357-7.5-7.5-7.5s-7.5 3.358-7.5 7.5v9.637c0 16.267 13.233 29.5 29.5 29.5h95.5v44h-117.5c-4.143 0-7.5 3.358-7.5 7.5v30c0 4.142 3.357 7.5 7.5 7.5h497c4.143 0 7.5-3.358 7.5-7.5v-30c0-4.142-3.357-7.5-7.5-7.5h-183.516c-4.143 0-7.5 3.358-7.5 7.5s3.357 7.5 7.5 7.5h176.016v15h-297v-15h87.5c4.143 0 7.5-3.358 7.5-7.5s-3.357-7.5-7.5-7.5h-117.5v-44h95.5c16.267 0 29.5-13.233 29.5-29.5v-30.5h20.009l15.815 22.948c1.4 2.031 3.709 3.244 6.176 3.244h27.5v27.5c0 9.649 7.851 17.5 17.5 17.5h70c9.649 0 17.5-7.851 17.5-17.5v-70c0-9.649-7.851-17.5-17.5-17.5h-70c-9.649 0-17.5 7.851-17.5 17.5v27.5h-23.561l-15.815-22.948c-1.4-2.031-3.709-3.244-6.176-3.244h-23.948v-30.5c0-8.736-3.82-16.594-9.874-22 6.054-5.406 9.874-13.264 9.874-22v-30.5h41.59c2.885 0 5.514-1.654 6.762-4.255l13.138-27.374h50.51v26.129c0 9.649 7.851 17.5 17.5 17.5zm-45-231c0-1.378 1.121-2.5 2.5-2.5h70c1.379 0 2.5 1.122 2.5 2.5v70c0 1.378-1.121 2.5-2.5 2.5h-70c-1.379 0-2.5-1.122-2.5-2.5zm-364.5 458h80v15h-80zm170 0v15h-75v-15h22.5c4.143 0 7.5-3.358 7.5-7.5v-22.5h15v22.5c0 4.142 3.357 7.5 7.5 7.5zm-30-45h-15v-14h15zm224.5-90.308c0-1.378 1.121-2.5 2.5-2.5h70c1.379 0 2.5 1.122 2.5 2.5v70c0 1.378-1.121 2.5-2.5 2.5h-70c-1.379 0-2.5-1.122-2.5-2.5zm-364.5-193.192v-76c0-7.995 6.505-14.5 14.5-14.5h236c7.995 0 14.5 6.505 14.5 14.5v76c0 7.995-6.505 14.5-14.5 14.5h-236c-7.995 0-14.5-6.505-14.5-14.5zm14.5 134.5c-7.995 0-14.5-6.505-14.5-14.5v-76c0-7.995 6.505-14.5 14.5-14.5h236c7.995 0 14.5 6.505 14.5 14.5v76c0 7.995-6.505 14.5-14.5 14.5zm392.5-120.5c0-1.378 1.121-2.5 2.5-2.5h70c1.379 0 2.5 1.122 2.5 2.5v70c0 1.378-1.121 2.5-2.5 2.5h-70c-1.379 0-2.5-1.122-2.5-2.5z"/><path d="m257.5 78h-220c-4.143 0-7.5 3.358-7.5 7.5v60c0 4.142 3.357 7.5 7.5 7.5h220c4.143 0 7.5-3.358 7.5-7.5v-60c0-4.142-3.357-7.5-7.5-7.5zm-116.5 15v9.5c0 4.136-3.364 7.5-7.5 7.5s-7.5-3.364-7.5-7.5v-9.5zm-50.007 0v9.5c0 4.136-3.364 7.5-7.5 7.5s-7.5-3.364-7.5-7.5v-9.5zm159.007 45h-205v-45h15.993v9.5c0 12.407 10.094 22.5 22.5 22.5s22.5-10.093 22.5-22.5v-9.5h5.007v9.5c0 12.407 10.094 22.5 22.5 22.5s22.5-10.093 22.5-22.5v-9.5h94z"/><path d="m257.5 198h-220c-4.143 0-7.5 3.358-7.5 7.5v60c0 4.142 3.357 7.5 7.5 7.5h220c4.143 0 7.5-3.358 7.5-7.5v-60c0-4.142-3.357-7.5-7.5-7.5zm-116.5 15v9.5c0 4.136-3.364 7.5-7.5 7.5s-7.5-3.364-7.5-7.5v-9.5zm-50.007 0v9.5c0 4.136-3.364 7.5-7.5 7.5s-7.5-3.364-7.5-7.5v-9.5zm159.007 45h-205v-45h15.993v9.5c0 12.407 10.094 22.5 22.5 22.5s22.5-10.093 22.5-22.5v-9.5h5.007v9.5c0 12.407 10.094 22.5 22.5 22.5s22.5-10.093 22.5-22.5v-9.5h94z"/><path d="m257.5 393c4.143 0 7.5-3.358 7.5-7.5v-60c0-4.142-3.357-7.5-7.5-7.5h-220c-4.143 0-7.5 3.358-7.5 7.5v60c0 4.142 3.357 7.5 7.5 7.5zm-116.5-60v9.5c0 4.136-3.364 7.5-7.5 7.5s-7.5-3.364-7.5-7.5v-9.5zm-50.007 0v9.5c0 4.136-3.364 7.5-7.5 7.5s-7.5-3.364-7.5-7.5v-9.5zm-45.993 0h15.993v9.5c0 12.407 10.094 22.5 22.5 22.5s22.5-10.093 22.5-22.5v-9.5h5.007v9.5c0 12.407 10.094 22.5 22.5 22.5s22.5-10.093 22.5-22.5v-9.5h94v45h-205z"/></g></g></svg>