<svg id="Layer_1" enable-background="new 0 0 512 512" height="512" viewBox="0 0 512 512" width="512" xmlns="http://www.w3.org/2000/svg"><g><path d="m401.627 396.134-16.963-51.76c-3.071-9.195-11.777-15.374-21.664-15.374h-170.944c-4.142 0-7.5 3.358-7.5 7.5s3.358 7.5 7.5 7.5h170.944c3.424 0 6.412 2.06 7.423 5.086l9.334 28.482c-1.863-.37-3.787-.568-5.757-.568h-236c-2.023 0-3.999.205-5.909.595l9.473-28.47c1.024-3.065 4.012-5.125 7.436-5.125h10.87c4.142 0 7.5-3.358 7.5-7.5s-3.358-7.5-7.5-7.5h-10.87c-9.887 0-18.593 6.179-21.666 15.382l-17.21 51.72c-.203.61-.319 1.237-.361 1.865-.818 2.703-1.263 5.567-1.263 8.533v76c0 16.267 13.233 29.5 29.5 29.5h236c16.267 0 29.5-13.233 29.5-29.5v-10.863c0-4.142-3.358-7.5-7.5-7.5s-7.5 3.358-7.5 7.5v10.863c0 7.995-6.505 14.5-14.5 14.5h-236c-7.995 0-14.5-6.505-14.5-14.5v-76c0-7.995 6.505-14.5 14.5-14.5h236c7.995 0 14.5 6.505 14.5 14.5v32.904c0 4.142 3.358 7.5 7.5 7.5s7.5-3.358 7.5-7.5v-32.904c0-3.612-.656-7.074-1.849-10.275-.01-.03-.014-.061-.024-.091z"/><path d="m146 407c-4.142 0-7.5 3.358-7.5 7.5v60c0 4.142 3.358 7.5 7.5 7.5h220c4.142 0 7.5-3.358 7.5-7.5v-60c0-4.142-3.358-7.5-7.5-7.5zm103.5 15v9.5c0 4.136-3.364 7.5-7.5 7.5s-7.5-3.364-7.5-7.5v-9.5zm-50.007 0v9.5c0 4.136-3.364 7.5-7.5 7.5s-7.5-3.364-7.5-7.5v-9.5zm159.007 45h-205v-45h15.993v9.5c0 12.407 10.093 22.5 22.5 22.5s22.5-10.093 22.5-22.5v-9.5h5.007v9.5c0 12.407 10.093 22.5 22.5 22.5s22.5-10.093 22.5-22.5v-9.5h94z"/><path d="m383.02 151.35c0-6.015-2.339-11.667-6.586-15.913-4.251-4.251-9.902-6.592-15.913-6.592-6.013 0-11.663 2.342-15.904 6.592l-81.685 81.685c-2.253-.401-4.566-.622-6.932-.622-21.78 0-39.5 17.72-39.5 39.5s17.72 39.5 39.5 39.5 39.5-17.72 39.5-39.5c0-2.443-.234-4.831-.661-7.152l81.594-81.594c4.248-4.248 6.587-9.896 6.587-15.904zm-127.02 129.15c-13.509 0-24.5-10.991-24.5-24.5s10.991-24.5 24.5-24.5 24.5 10.991 24.5 24.5-10.991 24.5-24.5 24.5zm109.827-123.853-77.166 77.166c-2.838-4.164-6.449-7.761-10.627-10.58l77.194-77.193c1.412-1.415 3.292-2.194 5.293-2.194 2.004 0 3.888.78 5.306 2.199 1.414 1.414 2.193 3.298 2.193 5.306 0 2-.779 3.881-2.193 5.296z"/><path d="m485.208 141.863c-16.948-33.971-41.769-64.313-71.779-87.747-3.267-2.55-7.979-1.969-10.527 1.295-2.549 3.265-1.97 7.978 1.295 10.527 5.867 4.581 11.47 9.404 16.83 14.427l-31.909 31.909c-34.981-32.423-81.774-52.274-133.118-52.274-105.562 0-191.9 83.89-195.858 188.5h-45.027c3.972-129.436 110.504-233.5 240.885-233.5 43.225 0 85.619 11.574 122.601 33.471 3.564 2.11 8.164.932 10.275-2.632 2.11-3.564.932-8.165-2.632-10.275-39.295-23.266-84.332-35.564-130.244-35.564-68.256 0-132.48 26.568-180.842 74.811-48.467 48.347-75.158 112.694-75.158 181.189 0 4.142 3.358 7.5 7.5 7.5h60c4.142 0 7.5-3.358 7.5-7.5 0-99.804 81.196-181 181-181s181 81.196 181 181c0 4.142 3.358 7.5 7.5 7.5h60c4.142 0 7.5-3.358 7.5-7.5 0-40.102-9.014-78.503-26.792-114.137zm-33.35 106.637c-1.831-48.393-21.301-92.343-52.138-125.614l31.929-31.93c40.201 42.614 63.433 98.137 65.237 157.543h-45.028z"/></g></svg>