<svg id="Layer_1" enable-background="new 0 0 512 512" height="512" viewBox="0 0 512 512" width="512" xmlns="http://www.w3.org/2000/svg"><g><g><path d="m401.627 396.134-16.963-51.76c-3.071-9.195-11.776-15.374-21.664-15.374h-170.807c-4.142 0-7.5 3.358-7.5 7.5s3.358 7.5 7.5 7.5h170.807c3.424 0 6.412 2.06 7.423 5.086l9.334 28.482c-1.863-.37-3.787-.568-5.757-.568h-236c-2.023 0-4 .205-5.909.595l9.473-28.47c1.024-3.065 4.012-5.125 7.436-5.125h10.96c4.142 0 7.5-3.358 7.5-7.5s-3.358-7.5-7.5-7.5h-10.96c-9.887 0-18.593 6.179-21.666 15.382l-17.21 51.72c-.203.61-1.624 7.431-1.624 10.398v76c0 16.267 13.233 29.5 29.5 29.5h236c16.267 0 29.5-13.233 29.5-29.5v-10.444c0-4.142-3.357-7.5-7.5-7.5s-7.5 3.358-7.5 7.5v10.444c0 7.995-6.505 14.5-14.5 14.5h-236c-7.995 0-14.5-6.505-14.5-14.5v-76c0-7.995 6.505-14.5 14.5-14.5h236c7.995 0 14.5 6.505 14.5 14.5v32.765c0 4.142 3.357 7.5 7.5 7.5s7.5-3.358 7.5-7.5v-32.765c0-3.612-.656-7.074-1.849-10.275-.01-.03-.014-.061-.024-.091z"/><path d="m146 407c-4.142 0-7.5 3.358-7.5 7.5v60c0 4.142 3.358 7.5 7.5 7.5h220c4.143 0 7.5-3.358 7.5-7.5v-60c0-4.142-3.357-7.5-7.5-7.5zm103.5 15v9.5c0 4.136-3.364 7.5-7.5 7.5s-7.5-3.364-7.5-7.5v-9.5zm-50.007 0v9.5c0 4.136-3.364 7.5-7.5 7.5s-7.5-3.364-7.5-7.5v-9.5zm159.007 45h-205v-45h15.993v9.5c0 12.407 10.093 22.5 22.5 22.5s22.5-10.093 22.5-22.5v-9.5h5.007v9.5c0 12.407 10.093 22.5 22.5 22.5s22.5-10.093 22.5-22.5v-9.5h94z"/><path d="m406.141 137.26c-3.583-4.408-7.288-8.965-8.304-12.766-1.096-4.099-.152-10.094.761-15.892 1.403-8.905 2.992-18.999-1.853-27.373-2.342-4.047-5.982-7.395-11.13-10.233-3.628-2-8.189-.681-10.189 2.946s-.682 8.189 2.945 10.189c2.69 1.484 4.454 2.992 5.391 4.61 2.185 3.776 1.084 10.767.019 17.527-1.155 7.341-2.351 14.931-.435 22.099 1.844 6.9 6.578 12.723 11.156 18.354 4.424 5.442 8.998 11.069 8.998 15.778s-4.574 10.336-8.998 15.778c-4.578 5.631-9.313 11.455-11.157 18.355-1.915 7.168-.72 14.758.436 22.099 1.065 6.761 2.166 13.751-.019 17.528-2.255 3.896-8.937 6.451-15.398 8.922-6.883 2.632-14 5.353-19.165 10.518-5.164 5.165-7.886 12.282-10.518 19.164-2.471 6.462-5.025 13.144-8.921 15.397-3.776 2.185-10.767 1.084-17.527.02-7.342-1.156-14.93-2.352-22.099-.436-6.9 1.844-12.725 6.579-18.356 11.157-5.442 4.425-11.069 8.999-15.778 8.999s-10.336-4.574-15.778-8.998c-5.632-4.578-11.455-9.313-18.355-11.157-7.168-1.917-14.759-.72-22.099.436-6.76 1.065-13.75 2.166-17.528-.02-3.895-2.254-6.45-8.936-8.921-15.397-2.632-6.883-5.354-14-10.518-19.165s-12.282-7.886-19.165-10.518c-6.461-2.471-13.143-5.026-15.397-8.921-2.185-3.776-1.084-10.767-.02-17.528 1.156-7.34 2.352-14.931.436-22.099-1.844-6.9-6.579-12.724-11.157-18.355-4.424-5.441-8.998-11.068-8.998-15.778s4.574-10.336 8.998-15.778c4.578-5.632 9.313-11.455 11.157-18.355 1.916-7.168.721-14.758-.436-22.099-1.064-6.761-2.166-13.751.02-17.528 2.254-3.895 8.936-6.45 15.397-8.921 6.883-2.632 14-5.354 19.165-10.518s7.886-12.282 10.518-19.165c2.471-6.461 5.026-13.143 8.921-15.397 3.777-2.184 10.768-1.083 17.528-.02 7.34 1.156 14.931 2.351 22.099.436 6.9-1.844 12.724-6.579 18.355-11.157 5.442-4.424 11.069-8.998 15.778-8.998s10.336 4.574 15.777 8.998c5.632 4.578 11.456 9.313 18.356 11.157 7.167 1.917 14.758.721 22.099-.436 6.761-1.064 13.752-2.165 17.528.02 3.895 2.254 6.45 8.936 8.921 15.397 2.219 5.803 4.514 11.804 8.306 16.656 2.551 3.265 7.266 3.842 10.527 1.291 3.264-2.55 3.842-7.264 1.291-10.527-2.404-3.077-4.206-7.789-6.113-12.777-3.246-8.488-6.924-18.108-15.42-23.023-8.374-4.846-18.468-3.256-27.373-1.854-5.799.913-11.793 1.858-15.893.762-3.801-1.016-8.359-4.721-12.768-8.305-7.124-5.793-15.201-12.359-25.238-12.359s-18.114 6.566-25.24 12.359c-4.408 3.583-8.966 7.289-12.767 8.305-4.1 1.095-10.095.151-15.892-.762-8.906-1.402-19-2.992-27.373 1.854-8.496 4.915-12.174 14.535-15.42 23.023-2.07 5.414-4.211 11.012-7.114 13.916-2.903 2.903-8.501 5.044-13.916 7.114-8.488 3.246-18.108 6.924-23.023 15.42-4.845 8.375-3.256 18.468-1.854 27.373.913 5.798 1.857 11.793.762 15.893-1.016 3.801-4.721 8.359-8.305 12.767-5.793 7.126-12.359 15.203-12.359 25.24s6.566 18.114 12.359 25.24c3.583 4.408 7.289 8.966 8.305 12.767 1.096 4.099.151 10.094-.762 15.892-1.402 8.906-2.992 18.999 1.854 27.373 4.915 8.496 14.535 12.174 23.023 15.42 5.414 2.07 11.012 4.211 13.916 7.114 2.903 2.903 5.044 8.501 7.114 13.916 3.246 8.488 6.924 18.108 15.42 23.023 8.374 4.846 18.468 3.255 27.373 1.854 5.798-.913 11.794-1.858 15.893-.762 3.801 1.016 8.359 4.721 12.767 8.305 7.125 5.79 15.202 12.356 25.239 12.356s18.114-6.566 25.239-12.359c4.408-3.583 8.967-7.289 12.768-8.305 4.101-1.096 10.095-.151 15.892.762 8.905 1.402 18.998 2.993 27.373-1.854 8.496-4.915 12.175-14.536 15.42-23.023 2.07-5.414 4.211-11.012 7.113-13.915 2.903-2.903 8.502-5.044 13.916-7.114 8.488-3.246 18.108-6.924 23.023-15.419 4.846-8.375 3.257-18.468 1.854-27.374-.913-5.798-1.856-11.793-.761-15.892 1.016-3.801 4.721-8.359 8.304-12.767 5.793-7.126 12.359-15.203 12.359-25.24s-6.566-18.114-12.359-25.24z"/><path d="m338.567 157.181c4.476-4.362 6.057-10.763 4.126-16.707-1.932-5.944-6.974-10.194-13.159-11.092l-40.035-5.816c-.424-.062-.79-.328-.979-.711l-17.904-36.271c-2.765-5.603-8.366-9.084-14.616-9.084s-11.85 3.481-14.616 9.084l-17.905 36.271c-.189.384-.555.649-.978.711l-40.036 5.816c-6.185.898-11.227 5.148-13.158 11.092-1.931 5.943-.35 12.345 4.125 16.707l28.97 28.233c.306.298.445.727.373 1.148l-6.839 39.866c-1.057 6.158 1.428 12.266 6.483 15.939 2.857 2.076 6.201 3.131 9.566 3.131 2.59 0 5.194-.625 7.6-1.89l35.81-18.822c.379-.199.83-.199 1.21 0l35.809 18.822c5.533 2.91 12.111 2.433 17.167-1.242 5.055-3.674 7.539-9.781 6.481-15.939l-6.838-39.865c-.072-.421.066-.851.373-1.149zm-44.127 31.917 6.839 39.866c.033.196.136.794-.517 1.268-.655.478-1.193.192-1.37.099l-35.808-18.822c-2.375-1.249-4.979-1.873-7.585-1.873-2.605 0-5.21.625-7.584 1.873l-35.81 18.822c-.177.093-.713.378-1.37-.099-.652-.474-.55-1.072-.516-1.268l6.839-39.865c.907-5.289-.845-10.682-4.688-14.427l-28.97-28.233c-.143-.139-.577-.563-.328-1.329.249-.768.851-.855 1.048-.884l40.037-5.816c5.31-.771 9.897-4.104 12.271-8.915l17.905-36.271c.088-.179.357-.724 1.165-.724s1.077.545 1.165.724l17.905 36.271c2.375 4.81 6.963 8.143 12.272 8.914l40.035 5.817c.198.028.8.116 1.049.883.249.766-.186 1.19-.328 1.329l-28.97 28.232c-3.84 3.746-5.593 9.139-4.686 14.428z"/></g></g></svg>