<svg id="Layer_1" enable-background="new 0 0 512 512" height="512" viewBox="0 0 512 512" width="512" xmlns="http://www.w3.org/2000/svg"><g><g><path d="m462.93 175.5h-10.93v-4.49c0-12.963-10.547-23.51-23.51-23.51h-27.98c-2.882 0-5.643.524-8.196 1.477v-12.663c-.001-75.164-61.151-136.314-136.314-136.314s-136.313 61.15-136.313 136.313v12.663c-2.554-.953-5.315-1.477-8.196-1.477h-27.981c-12.963.001-23.51 10.547-23.51 23.511v4.49h-10.93c-27.057 0-49.07 22.013-49.07 49.07v59.43c0 28.949 23.552 52.5 52.5 52.5h7.5v4.49c0 12.963 10.547 23.51 23.51 23.51h6.852c2.494 25.991 17.529 48.363 38.966 61 19.836 50.586 69.138 86.5 126.672 86.5 21.706 0 42.454-4.964 61.667-14.753 3.69-1.881 5.158-6.397 3.277-10.088-1.881-3.69-6.396-5.157-10.088-3.277-17.083 8.704-35.54 13.118-54.856 13.118-45.716 0-85.589-25.487-106.164-62.996 6.337 1.628 12.976 2.496 19.815 2.496h37.898c3.274 11.528 13.889 20 26.452 20h44c15.163 0 27.5-12.336 27.5-27.5s-12.337-27.5-27.5-27.5h-44c-12.563 0-23.178 8.472-26.452 20h-37.899c-10.102 0-19.667-2.332-28.193-6.48-4.183-12.248-6.457-25.373-6.457-39.02v-161.5c0-66.72 54.28-121 121-121 23.604 0 46.474 6.797 66.136 19.656 3.467 2.266 8.114 1.295 10.383-2.172 2.267-3.467 1.294-8.115-2.172-10.382-22.11-14.459-47.819-22.102-74.347-22.102-52.898 0-98.836 30.36-121.313 74.569v-16.755c0-66.893 54.42-121.314 121.313-121.314s121.313 54.421 121.313 121.313v16.651c-5.686-11.194-12.95-21.643-21.677-31.032-2.819-3.034-7.565-3.208-10.599-.388s-3.208 7.565-.388 10.6c20.862 22.446 32.351 51.694 32.351 82.356v161.5c0 34.836-15.032 68.003-41.243 90.996-3.113 2.732-3.423 7.47-.691 10.584 1.482 1.69 3.557 2.554 5.641 2.554 1.756 0 3.52-.613 4.943-1.862 29.455-25.841 46.35-63.117 46.35-102.272v-13.101c2.641 1.029 5.509 1.601 8.51 1.601h27.98c12.963 0 23.51-10.546 23.51-23.51v-4.49h7.5c28.948 0 52.5-23.551 52.5-52.5v-59.43c0-27.057-22.013-49.07-49.07-49.07zm-397.943 38.313h12c4.687 0 8.5 3.813 8.5 8.5s-3.813 8.5-8.5 8.5h-9.429c-.02 0-.039-.003-.058-.003s-.038.003-.058.003h-2.455c-4.687 0-8.5-3.813-8.5-8.5s3.814-8.5 8.5-8.5zm-4.987 107.687h-7.5c-20.678 0-37.5-16.822-37.5-37.5v-59.43c0-18.786 15.284-34.07 34.07-34.07h10.93v8.851c-10.57 2.294-18.513 11.716-18.513 22.962s7.943 20.668 18.513 22.962v14.763c-10.57 2.294-18.513 11.715-18.513 22.962s7.943 20.668 18.513 22.962zm4.987-30c-4.687 0-8.5-3.813-8.5-8.5s3.813-8.5 8.5-8.5h12c4.687 0 8.5 3.813 8.5 8.5s-3.813 8.5-8.5 8.5zm32.498 57.834c-.536 0-1.058.059-1.563.166h-12.412c-4.692 0-8.51-3.817-8.51-8.51v-34.49h1.987c12.958 0 23.5-10.542 23.5-23.5s-10.542-23.5-23.5-23.5h-1.987v-13.687h1.987c12.958 0 23.5-10.542 23.5-23.5s-10.542-23.5-23.5-23.5h-1.987v-27.803c0-4.692 3.817-8.51 8.51-8.51h27.98c4.692 0 8.51 3.817 8.51 8.51v169.98c0 4.692-3.817 8.51-8.51 8.51h-12.442c-.504-.107-1.027-.166-1.563-.166zm7.97 15.166h6.035c3.001 0 5.869-.571 8.51-1.601v13.101c0 8.461.784 16.742 2.27 24.78-9.076-9.779-15.162-22.356-16.815-36.28zm128.545 52h44c6.893 0 12.5 5.607 12.5 12.5s-5.607 12.5-12.5 12.5h-44c-6.893 0-12.5-5.607-12.5-12.5s5.607-12.5 12.5-12.5zm213.013-202.687c4.687 0 8.5 3.813 8.5 8.5s-3.813 8.5-8.5 8.5h-2.455c-.02 0-.039-.003-.058-.003s-.039.003-.058.003h-9.429c-4.687 0-8.5-3.813-8.5-8.5s3.813-8.5 8.5-8.5zm-10.013 127.177c0 4.692-3.817 8.51-8.51 8.51h-27.98c-4.692 0-8.51-3.817-8.51-8.51v-169.98c0-4.692 3.817-8.51 8.51-8.51h27.98c4.692 0 8.51 3.817 8.51 8.51v27.803h-1.987c-12.958 0-23.5 10.542-23.5 23.5s10.542 23.5 23.5 23.5h1.987v13.687h-1.987c-12.958 0-23.5 10.542-23.5 23.5s10.542 23.5 23.5 23.5h1.987zm10.013-49.49h-12c-4.687 0-8.5-3.813-8.5-8.5s3.813-8.5 8.5-8.5h12c4.687 0 8.5 3.813 8.5 8.5s-3.814 8.5-8.5 8.5zm49.987-7.5c0 20.678-16.822 37.5-37.5 37.5h-7.5v-15.538c10.57-2.294 18.513-11.716 18.513-22.962s-7.943-20.668-18.513-22.962v-14.763c10.57-2.294 18.513-11.716 18.513-22.962s-7.943-20.668-18.513-22.962v-8.851h10.93c18.786 0 34.07 15.284 34.07 34.07z"/><path d="m322.606 291.5h-90.183c-4.143 0-7.5 3.358-7.5 7.5s3.357 7.5 7.5 7.5h90.183c23.169 0 42.018-18.85 42.018-42.019s-18.849-42.018-42.018-42.018h-134.181c-23.169 0-42.018 18.85-42.018 42.019s18.849 42.018 42.018 42.018h11.441c4.143 0 7.5-3.358 7.5-7.5s-3.357-7.5-7.5-7.5h-11.441c-14.897 0-27.018-12.121-27.018-27.019s12.12-27.018 27.018-27.018h134.182c14.897 0 27.018 12.121 27.018 27.019s-12.121 27.018-27.019 27.018z"/></g></g></svg>