<svg id="Layer_1" enable-background="new 0 0 512 512" height="512" viewBox="0 0 512 512" width="512" xmlns="http://www.w3.org/2000/svg"><g><g><path d="m434 102.997c4.143 0 7.5-3.358 7.5-7.5v-27.997c0-20.678-16.822-37.5-37.5-37.5h-35.5v-16.5c0-7.444-6.056-13.5-13.5-13.5h-131.042c-4.143 0-7.5 3.358-7.5 7.5s3.357 7.5 7.5 7.5h129.542v15h-195v-15h34.5c4.143 0 7.5-3.358 7.5-7.5s-3.357-7.5-7.5-7.5h-36c-7.444 0-13.5 6.056-13.5 13.5v16.5h-35.5c-20.678 0-37.5 16.822-37.5 37.5v407c0 20.678 16.822 37.5 37.5 37.5h296c20.678 0 37.5-16.822 37.5-37.5v-347.003c0-4.142-3.357-7.5-7.5-7.5s-7.5 3.358-7.5 7.5v347.003c0 12.407-10.094 22.5-22.5 22.5h-296c-12.406 0-22.5-10.093-22.5-22.5v-407c0-12.407 10.094-22.5 22.5-22.5h63.974c.639 5.23 1.936 10.257 3.808 15h-67.782c-4.143 0-7.5 3.358-7.5 7.5v316.741c0 4.142 3.357 7.5 7.5 7.5s7.5-3.358 7.5-7.5v-309.241h68.805c11.256 14.582 28.892 24 48.695 24h46c19.803 0 37.439-9.418 48.695-24h68.805v392h-281v-51.503c0-4.142-3.357-7.5-7.5-7.5s-7.5 3.358-7.5 7.5v59.003c0 4.142 3.357 7.5 7.5 7.5h296c4.143 0 7.5-3.358 7.5-7.5v-407c0-4.142-3.357-7.5-7.5-7.5h-67.781c1.872-4.743 3.169-9.77 3.808-15h63.973c12.406 0 22.5 10.093 22.5 22.5v27.997c0 4.142 3.357 7.5 7.5 7.5zm-155-18.997h-46c-10.262 0-19.753-3.348-27.453-9h100.906c-7.7 5.652-17.191 9-27.453 9zm40.676-24h-127.352c-2.546-4.584-4.337-9.639-5.211-15h137.773c-.873 5.361-2.664 10.416-5.21 15z"/><path d="m129.5 433c0 4.142 3.357 7.5 7.5 7.5h238c4.143 0 7.5-3.358 7.5-7.5s-3.357-7.5-7.5-7.5h-21.5v-74.5c0-8.547-6.953-15.5-15.5-15.5h-44c-.169 0-.333.02-.5.025v-24.525c0-8.547-6.953-15.5-15.5-15.5h-44c-8.547 0-15.5 6.953-15.5 15.5v54.525c-.167-.005-.331-.025-.5-.025h-44c-8.547 0-15.5 6.953-15.5 15.5v44.5h-21.5c-4.143 0-7.5 3.358-7.5 7.5zm164.5-82.5h44c.275 0 .5.224.5.5v74.5h-45v-74.5c0-.276.225-.5.5-.5zm-60.5-39.5c0-.276.225-.5.5-.5h44c.275 0 .5.224.5.5v114.5h-45zm-60 70c0-.276.225-.5.5-.5h44c.275 0 .5.224.5.5v44.5h-45z"/><path d="m246.5 190c0-29.5-24-53.5-53.5-53.5s-53.5 24-53.5 53.5 24 53.5 53.5 53.5 53.5-24 53.5-53.5zm-15.733-7.5h-30.267v-30.267c15.225 3.018 27.249 15.042 30.267 30.267zm-76.267 7.5c0-18.664 13.349-34.268 31-37.767v37.767c0 4.142 3.357 7.5 7.5 7.5h37.767c-3.499 17.651-19.104 31-37.767 31-21.229 0-38.5-17.271-38.5-38.5z"/><path d="m319 243.5c16.032 0 31.084-7.099 41.295-19.477 0 0 0-.001.001-.001 0-.001.001-.001.002-.002 7.869-9.549 12.202-21.631 12.202-34.02 0-29.5-24-53.5-53.5-53.5s-53.5 24-53.5 53.5 24 53.5 53.5 53.5zm38.5-53.5c0 6.384-1.598 12.653-4.583 18.221l-26.417-21.76v-34.228c17.651 3.499 31 19.103 31 37.767zm-46-37.767v37.767c0 2.241 1.002 4.364 2.731 5.789l29.153 24.014c-6.823 5.591-15.389 8.697-24.385 8.697-21.229 0-38.5-17.271-38.5-38.5.001-18.664 13.35-34.268 31.001-37.767z"/></g></g></svg>