<svg id="Layer_1" enable-background="new 0 0 512 512" height="512" viewBox="0 0 512 512" width="512" xmlns="http://www.w3.org/2000/svg"><g><path d="m273.121 267.297h8.093c4.142 0 7.5-3.358 7.5-7.5v-37.448h24.07v29.948h-1.988c-4.142 0-7.5 3.358-7.5 7.5s3.358 7.5 7.5 7.5h9.488c4.142 0 7.5-3.358 7.5-7.5v-44.948c0-4.142-3.358-7.5-7.5-7.5h-39.07c-4.142 0-7.5 3.358-7.5 7.5v37.448h-.593c-4.142 0-7.5 3.358-7.5 7.5s3.358 7.5 7.5 7.5z"/><path d="m445 30h-98c-5.238 0-9.5 4.262-9.5 9.5v98c0 5.238 4.262 9.5 9.5 9.5h98c5.238 0 9.5-4.262 9.5-9.5v-98c0-5.238-4.262-9.5-9.5-9.5zm-5.5 102h-87v-87h87z"/><path d="m375.255 118.549c1.772.965 3.721 1.444 5.667 1.444 2.244 0 4.482-.637 6.438-1.9l30.154-19.481c3.436-2.22 5.487-6 5.487-10.111s-2.051-7.892-5.487-10.111l-30.153-19.48c-3.651-2.359-8.29-2.535-12.104-.457-3.858 2.101-6.255 6.15-6.255 10.568v38.962c-.002 4.416 2.395 8.465 6.253 10.566zm8.745-43.953 21.522 13.904-21.522 13.904z"/><path d="m477 55.182c4.142 0 7.5-3.358 7.5-7.5v-15.941c0-17.502-14.239-31.741-31.741-31.741h-113.518c-17.502 0-31.741 14.239-31.741 31.741v113.518c0 1.808.16 3.578.452 5.304h-65.876c-17.502 0-31.741 14.239-31.741 31.741v89.696h-50.838c-4.142 0-7.5 3.358-7.5 7.5s3.358 7.5 7.5 7.5h264.503c5.238 0 9.5 4.262 9.5 9.5s-4.262 9.5-9.5 9.5h-336c-5.238 0-9.5-4.262-9.5-9.5s4.262-9.5 9.5-9.5h39.961c4.142 0 7.5-3.358 7.5-7.5s-3.358-7.5-7.5-7.5h-39.961c-13.509 0-24.5 10.991-24.5 24.5s10.991 24.5 24.5 24.5h7.07l98.661 90.982 6.109 93.01c.259 3.943 3.533 7.008 7.484 7.008h97.354c3.951 0 7.225-3.065 7.484-7.008l1.315-20.026c.271-4.133-2.859-7.704-6.992-7.976-4.13-.271-7.705 2.859-7.976 6.992l-.856 13.018h-83.307l-5.32-81h93.947l-2.371 36.097c-.271 4.133 2.859 7.704 6.992 7.976 4.131.276 7.705-2.859 7.976-6.992l2.699-41.098 98.661-90.983h7.07c13.509 0 24.5-10.991 24.5-24.5s-10.991-24.5-24.5-24.5h-36.666v-89.697c0-1.785-.167-3.557-.463-5.303h65.887c17.502 0 31.741-14.239 31.741-31.741v-65.577c0-4.142-3.358-7.5-7.5-7.5s-7.5 3.358-7.5 7.5v65.577c0 9.231-7.51 16.741-16.741 16.741h-113.517c-9.231 0-16.741-7.51-16.741-16.741v-113.518c0-9.231 7.51-16.741 16.741-16.741h113.518c9.231 0 16.741 7.51 16.741 16.741v15.941c0 4.142 3.358 7.5 7.5 7.5zm-168.948 345.818h-104.104l-86.751-80h277.607zm34.278-129h-87v-76.44h87zm-3.089-95h32.231c.566 1.7.862 3.49.862 5.303v89.697h-15.004v-81.94c0-5.238-4.262-9.5-9.5-9.5h-98c-5.238 0-9.5 4.262-9.5 9.5v81.94h-14.996v-89.697c0-9.231 7.51-16.741 16.741-16.741h72.79c5.828 6.984 14.591 11.438 24.376 11.438z"/><path d="m174.5 72c0-5.238-4.262-9.5-9.5-9.5h-98c-5.238 0-9.5 4.262-9.5 9.5v98c0 5.238 4.262 9.5 9.5 9.5h98c5.238 0 9.5-4.262 9.5-9.5zm-15 5.5v38.422l-10.561-13.298c-1.813-2.283-4.524-3.592-7.439-3.592s-5.626 1.309-7.44 3.592l-12.079 15.211-18.061-22.743c-1.813-2.283-4.524-3.592-7.439-3.592s-5.626 1.309-7.439 3.592l-16.542 20.83v-38.422zm-27.917 52.427-.025-.031 9.942-12.52 9.967 12.551zm-19.204 0h-31.846l15.947-20.082 15.923 20.051zm-39.879 34.573v-19.573h87v19.573z"/><path d="m204.5 177.759v-113.518c0-17.502-14.239-31.741-31.741-31.741h-113.518c-17.502 0-31.741 14.239-31.741 31.741v113.518c0 17.502 14.239 31.741 31.741 31.741h113.518c17.502 0 31.741-14.239 31.741-31.741zm-162 0v-113.518c0-9.231 7.51-16.741 16.741-16.741h113.518c9.231 0 16.741 7.51 16.741 16.741v113.518c0 9.231-7.51 16.741-16.741 16.741h-113.518c-9.231 0-16.741-7.51-16.741-16.741z"/></g></svg>