<svg id="Layer_1" enable-background="new 0 0 512 512" height="512" viewBox="0 0 512 512" width="512" xmlns="http://www.w3.org/2000/svg"><g><path d="m504.5 400.5h-226v-44h183.5c4.142 0 7.5-3.357 7.5-7.5s-3.358-7.5-7.5-7.5h-18.5v-176.5c0-6.341-5.159-11.5-11.5-11.5h-108.5v-75.5c0-6.341-5.159-11.5-11.5-11.5h-23.853c-4.142 0-7.5 3.357-7.5 7.5s3.358 7.5 7.5 7.5h20.353v260h-105v-260h52.5c4.142 0 7.5-3.357 7.5-7.5s-3.358-7.5-7.5-7.5h-56c-6.341 0-11.5 5.159-11.5 11.5v109.697h-108.5c-6.341 0-11.5 5.159-11.5 11.5v24.668c0 4.143 3.358 7.5 7.5 7.5s7.5-3.357 7.5-7.5v-21.168h105v138.803h-105v-85.5c0-4.143-3.358-7.5-7.5-7.5s-7.5 3.357-7.5 7.5v85.5h-18.5c-4.142 0-7.5 3.357-7.5 7.5s3.358 7.5 7.5 7.5h183.5v44h-226c-4.142 0-7.5 3.357-7.5 7.5v30c0 4.143 3.358 7.5 7.5 7.5h344.74c4.142 0 7.5-3.357 7.5-7.5s-3.358-7.5-7.5-7.5h-43.74v-15h188.5v15h-112.88c-4.142 0-7.5 3.357-7.5 7.5s3.358 7.5 7.5 7.5h120.38c4.142 0 7.5-3.357 7.5-7.5v-30c0-4.143-3.358-7.5-7.5-7.5zm-181-232h105v173h-105zm-60 188v14h-15v-14zm-248.5 59h188.5v15h-188.5zm278.5 15h-75v-15h22.5c4.142 0 7.5-3.357 7.5-7.5v-22.5h15v22.5c0 4.143 3.358 7.5 7.5 7.5h22.5z"/></g></svg>