<svg id="Layer_1" enable-background="new 0 0 512 512" height="512" viewBox="0 0 512 512" width="512" xmlns="http://www.w3.org/2000/svg"><g><g><path d="m320.136 467c-4.142 0-7.5 3.357-7.5 7.5s3.358 7.5 7.5 7.5h45.864c4.142 0 7.5-3.357 7.5-7.5v-59.999c0-4.143-3.358-7.5-7.5-7.5h-220c-4.142 0-7.5 3.357-7.5 7.5v59.999c0 4.143 3.358 7.5 7.5 7.5h141.868c4.142 0 7.5-3.357 7.5-7.5s-3.358-7.5-7.5-7.5h-134.368v-45h15.993v9.5c0 12.406 10.093 22.5 22.5 22.5s22.5-10.094 22.5-22.5v-9.5h5.007v9.5c0 12.406 10.093 22.5 22.5 22.5s22.5-10.094 22.5-22.5v-9.5h94v45zm-120.643-35.499c0 4.136-3.364 7.5-7.5 7.5s-7.5-3.364-7.5-7.5v-9.5h15zm50.007 0c0 4.136-3.364 7.5-7.5 7.5s-7.5-3.364-7.5-7.5v-9.5h15z"/><path d="m434 143.503h-12.802c-5.201-17.351-16.248-32.193-30.853-42.23-5.432-15.076-12.841-29.131-22.092-41.786-2.445-3.343-7.137-4.071-10.481-1.628-3.344 2.444-4.073 7.137-1.628 10.481 5.232 7.156 9.808 14.817 13.724 22.885-7.531-2.409-15.548-3.722-23.868-3.722-35.466 0-65.499 23.648-75.198 55.999h-29.605c-9.698-32.352-39.731-55.999-75.198-55.999-7.891 0-15.509 1.183-22.699 3.359 9.732-19.628 23.18-36.554 39.547-49.564 21.384-16.999 46.354-26.091 72.21-26.295.312-.003.623-.004.934-.004 29.013 0 56.432 10.562 79.347 30.581 3.118 2.724 7.856 2.405 10.583-.714 2.725-3.12 2.405-7.857-.714-10.583-25.967-22.683-57.171-34.556-90.266-34.278-29.239.23-57.396 10.45-81.427 29.552-22.512 17.896-40.002 42.4-50.732 70.96-15.162 10.039-26.645 25.193-31.979 42.986h-12.803c-6.018 0-11.67 2.347-15.894 6.588-4.26 4.244-6.606 9.895-6.606 15.912 0 12.406 10.093 22.5 22.5 22.5h12.802c6.036 20.134 19.942 36.893 38.142 46.681 19.409 39.297 51.07 71.711 77.071 93.818h-57.015c-9.888 0-18.593 6.179-21.666 15.382l-17.21 51.719c-.203.611-1.624 7.432-1.624 10.398v9.201c0 4.143 3.358 7.5 7.5 7.5s7.5-3.357 7.5-7.5v-9.201c0-7.995 6.505-14.5 14.5-14.5h236c7.995 0 14.5 6.505 14.5 14.5v75.999c0 7.995-6.505 14.5-14.5 14.5h-236c-7.995 0-14.5-6.505-14.5-14.5v-34.775c0-4.143-3.358-7.5-7.5-7.5s-7.5 3.357-7.5 7.5v34.775c0 16.266 13.233 29.5 29.5 29.5h236c16.267 0 29.5-13.233 29.5-29.5v-75.999c0-3.612-.656-7.073-1.849-10.274-.01-.03-.014-.062-.024-.092l-16.963-51.758c-3.07-9.196-11.776-15.375-21.664-15.375h-57.178c25.65-21.938 56.858-54.105 76.389-93.385 18.61-9.72 32.858-26.672 38.986-47.114h12.803c6.018 0 11.67-2.347 15.894-6.588 4.26-4.244 6.606-9.895 6.606-15.912 0-12.406-10.093-22.5-22.5-22.5zm-166.133 15c-.235 2.47-.367 4.97-.367 7.5s.132 5.03.367 7.5h-23.734c.235-2.47.367-4.97.367-7.5s-.132-5.03-.367-7.5zm-189.867 15c-4.136 0-7.5-3.364-7.5-7.5 0-2 .779-3.877 2.214-5.307 1.409-1.414 3.286-2.193 5.286-2.193h9.867c-.235 2.47-.367 4.97-.367 7.5s.132 5.03.367 7.5zm24.5-7.5c0-35.013 28.486-63.499 63.5-63.499s63.5 28.486 63.5 63.499-28.486 63.499-63.5 63.499-63.5-28.485-63.5-63.499zm260.5 177.999c3.424 0 6.412 2.06 7.423 5.086l9.334 28.482c-1.863-.37-3.787-.568-5.757-.568h-236c-2.023 0-3.999.206-5.909.595l9.473-28.47c1.023-3.065 4.012-5.125 7.436-5.125h75.709c11.499 8.701 20.16 14.317 23.369 16.338 2.012 2.266 4.881 3.604 7.922 3.604s5.911-1.34 7.923-3.605c3.202-2.018 11.834-7.622 23.301-16.337zm-107.001 3.591c-9.15-5.833-70.856-46.554-105.742-104.678 5.088 1.04 10.352 1.587 15.743 1.587 35.466 0 65.499-23.648 75.198-55.999h29.605c9.698 32.352 39.731 55.999 75.198 55.999 5.147 0 10.176-.513 15.049-1.463-34.983 58.386-95.972 98.754-105.051 104.554zm90.001-118.09c-35.014 0-63.5-28.486-63.5-63.499s28.486-63.499 63.5-63.499 63.5 28.486 63.5 63.499-28.486 63.499-63.5 63.499zm93.286-58.193c-1.409 1.414-3.286 2.193-5.286 2.193h-9.867c.235-2.47.367-4.97.367-7.5s-.132-5.03-.367-7.5h9.867c4.136 0 7.5 3.364 7.5 7.5 0 2-.779 3.877-2.214 5.307z"/></g></g></svg>