<svg id="Layer_1" enable-background="new 0 0 512 512" height="512" viewBox="0 0 512 512" width="512" xmlns="http://www.w3.org/2000/svg"><g><g><path d="m95.61 346.894h-4.41c-4.142 0-7.5 3.357-7.5 7.5s3.358 7.5 7.5 7.5h329.6c4.143 0 7.5-3.357 7.5-7.5s-3.357-7.5-7.5-7.5h-4.41c-2.716-22.385-17.413-41.128-37.482-49.584 5.84-6.019 9.446-14.217 9.446-23.246 0-18.424-14.989-33.413-33.413-33.413s-33.413 14.989-33.413 33.413c0 9.02 3.598 17.209 9.427 23.227-4.588 1.928-8.941 4.416-12.973 7.43-9.447-12.297-22.298-21.843-37.143-27.202 9.271-7.863 15.17-19.585 15.17-32.666 0-23.62-19.216-42.836-42.835-42.836s-42.836 19.216-42.836 42.836c0 13.078 5.898 24.798 15.166 32.662-1.637.59-3.265 1.215-4.871 1.914-3.799 1.65-5.54 6.068-3.889 9.867s6.068 5.542 9.868 3.889c8.391-3.646 17.328-5.496 26.562-5.496 34.245 0 62.546 25.938 66.285 59.202h-132.57c1.542-13.674 7.274-26.57 16.525-36.924 2.76-3.089 2.493-7.83-.596-10.59s-7.83-2.493-10.59.596c-.65.728-1.274 1.474-1.895 2.221-2.967-1.891-6.086-3.518-9.317-4.874 5.845-6.02 9.455-14.222 9.455-23.256 0-18.424-14.989-33.413-33.413-33.413s-33.413 14.989-33.413 33.413c0 9.029 3.606 17.227 9.446 23.246-20.068 8.456-34.764 27.198-37.481 49.584zm129.727-102.041c0-15.349 12.487-27.836 27.836-27.836 15.348 0 27.835 12.487 27.835 27.836s-12.487 27.835-27.835 27.835-27.836-12.487-27.836-27.835zm129.603 10.797c10.153 0 18.413 8.26 18.413 18.413 0 10.152-8.26 18.412-18.413 18.412s-18.413-8.26-18.413-18.412c0-10.153 8.26-18.413 18.413-18.413zm-28.919 61.816c8.22-6.466 18.3-9.986 28.919-9.986 23.318 0 42.719 17.097 46.32 39.409h-66.741c-.961-10.507-3.925-20.437-8.498-29.423zm-168.961-61.816c10.153 0 18.413 8.26 18.413 18.413 0 10.152-8.26 18.412-18.413 18.412s-18.413-8.26-18.413-18.412c-.001-10.153 8.26-18.413 18.413-18.413zm0 51.83c8.787 0 17.381 2.488 24.776 7.088-5.542 9.921-8.977 20.916-10.024 32.321h-61.072c3.601-22.312 23.002-39.409 46.32-39.409z"/><path d="m247.822 183.25c1.468 1.495 3.409 2.245 5.352 2.245 1.895 0 3.791-.714 5.25-2.145l68.448-67.115c2.957-2.9 3.004-7.648.104-10.606s-7.648-3.004-10.606-.104l-63.097 61.869-39.053-39.766c-2.902-2.954-7.651-2.999-10.606-.096-2.955 2.902-2.998 7.65-.096 10.605z"/><path d="m441.357 79.427c-2.856-3-7.604-3.113-10.604-.256s-3.113 7.604-.256 10.604c42.886 45.004 66.503 104.038 66.503 166.225 0 64.372-25.068 124.893-70.588 170.412s-106.04 70.588-170.412 70.588-124.892-25.068-170.412-70.588-70.588-106.04-70.588-170.412 25.069-124.893 70.588-170.412 106.04-70.588 170.412-70.588c55.12 0 109.004 19.088 151.725 53.746 3.219 2.61 7.939 2.116 10.55-1.099 2.609-3.217 2.117-7.94-1.099-10.55-45.386-36.82-102.625-57.097-161.176-57.097-68.379 0-132.666 26.629-181.018 74.981-48.353 48.353-74.982 112.64-74.982 181.019s26.629 132.666 74.982 181.019c48.352 48.352 112.639 74.981 181.018 74.981s132.666-26.629 181.019-74.981 74.981-112.64 74.981-181.019c0-66.059-25.088-128.767-70.643-176.573z"/><path d="m454.5 248.5h19.484c2.077 0 4.061-.861 5.479-2.378s2.145-3.554 2.005-5.626c-3.663-54.371-26.982-105.618-65.664-144.3-38.681-38.681-89.928-62-144.3-65.664-2.062-.128-4.109.587-5.626 2.005s-2.378 3.401-2.378 5.479v19.484c0 4.136-3.364 7.5-7.5 7.5s-7.5-3.364-7.5-7.5v-19.484c0-2.077-.861-4.061-2.378-5.479-1.518-1.419-3.557-2.142-5.626-2.005-54.372 3.664-105.618 26.983-144.299 65.664-38.681 38.682-62.001 89.928-65.664 144.3-.14 2.071.586 4.109 2.004 5.626s3.402 2.378 5.479 2.378h19.484c4.136 0 7.5 3.364 7.5 7.5s-3.364 7.5-7.5 7.5h-19.484c-2.077 0-4.061.861-5.479 2.378s-2.144 3.555-2.004 5.626c3.663 54.372 26.983 105.618 65.664 144.3 12.252 12.252 25.831 23.065 40.357 32.14 3.513 2.196 8.14 1.126 10.334-2.387s1.126-8.14-2.387-10.335c-13.564-8.474-26.248-18.575-37.698-30.025-34.209-34.21-55.549-78.938-60.611-126.697h11.308c12.407 0 22.5-10.094 22.5-22.5s-10.093-22.5-22.5-22.5h-11.308c5.062-47.759 26.401-92.487 60.611-126.696 34.209-34.209 78.938-55.549 126.697-60.611v11.307c0 12.406 10.093 22.5 22.5 22.5 12.406 0 22.5-10.094 22.5-22.5v-11.308c47.76 5.063 92.487 26.402 126.696 60.611 34.21 34.21 55.551 78.938 60.611 126.696h-11.307c-12.406 0-22.5 10.094-22.5 22.5s10.094 22.5 22.5 22.5h11.308c-5.061 47.759-26.401 92.486-60.611 126.696-34.209 34.209-78.937 55.549-126.696 60.611v-11.306c0-12.406-10.094-22.5-22.5-22.5-12.407 0-22.5 10.094-22.5 22.5v11.312c-21.366-2.246-42.073-7.685-61.663-16.204-3.799-1.652-8.217.089-9.869 3.887-1.652 3.799.088 8.217 3.887 9.869 23.607 10.267 48.72 16.357 74.641 18.104.169.011.337.017.504.017 1.896 0 3.729-.719 5.122-2.021 1.517-1.418 2.378-3.401 2.378-5.479v-19.485c0-4.136 3.364-7.5 7.5-7.5s7.5 3.364 7.5 7.5v19.484c0 2.077.861 4.061 2.378 5.479s3.555 2.143 5.626 2.005c54.372-3.664 105.619-26.983 144.3-65.664 38.682-38.682 62.001-89.929 65.664-144.3.14-2.072-.587-4.109-2.005-5.626s-3.401-2.378-5.479-2.378h-19.485c-4.136 0-7.5-3.364-7.5-7.5s3.364-7.5 7.5-7.5z"/></g></g></svg>