<svg id="Layer_1" enable-background="new 0 0 512 512" height="512" viewBox="0 0 512 512" width="512" xmlns="http://www.w3.org/2000/svg"><g><g><path d="m366 407h-220c-4.143 0-7.5 3.357-7.5 7.5v60c0 4.143 3.357 7.5 7.5 7.5h220c4.143 0 7.5-3.357 7.5-7.5v-60c0-4.143-3.357-7.5-7.5-7.5zm-116.5 15v9.5c0 4.136-3.364 7.5-7.5 7.5s-7.5-3.364-7.5-7.5v-9.5zm-50.007 0v9.5c0 4.136-3.364 7.5-7.5 7.5s-7.5-3.364-7.5-7.5v-9.5zm159.007 45h-205v-45h15.993v9.5c0 12.406 10.094 22.5 22.5 22.5s22.5-10.094 22.5-22.5v-9.5h5.007v9.5c0 12.406 10.094 22.5 22.5 22.5s22.5-10.094 22.5-22.5v-9.5h94z"/><path d="m213.801 220.787c4.294 3.121 9.881 3.523 14.579 1.055l25.275-13.284 25.276 13.284c2.044 1.074 4.255 1.604 6.455 1.604 2.858 0 5.698-.896 8.124-2.659 4.294-3.119 6.403-8.307 5.506-13.537l-4.826-28.138 20.448-19.928c3.801-3.705 5.143-9.142 3.503-14.189-1.641-5.048-5.923-8.657-11.176-9.42l-28.259-4.106-12.638-25.601c-2.349-4.76-7.105-7.716-12.414-7.716-5.308 0-10.064 2.956-12.413 7.716l-12.638 25.601-28.259 4.106c-5.253.763-9.535 4.372-11.176 9.42-1.64 5.048-.298 10.484 3.504 14.19l20.447 19.927-4.826 28.138c-.896 5.23 1.214 10.418 5.508 13.537zm-8.977-70.705 26.537-3.856c4.51-.654 8.406-3.484 10.425-7.571l11.87-24.046 11.87 24.047c2.018 4.086 5.914 6.916 10.423 7.57l26.538 3.856-19.202 18.713c-3.265 3.182-4.753 7.763-3.981 12.253l4.533 26.427-23.738-12.477c-4.034-2.123-8.852-2.122-12.884-.001l-23.74 12.478 4.533-26.425c.771-4.492-.717-9.073-3.981-12.255z"/><path d="m256 25c4.143 0 7.5-3.357 7.5-7.5v-10c0-4.143-3.357-7.5-7.5-7.5s-7.5 3.357-7.5 7.5v10c0 4.143 3.357 7.5 7.5 7.5z"/><path d="m201.364 28.452c1.119 3.028 3.986 4.902 7.036 4.902.863 0 1.741-.15 2.599-.467 3.886-1.437 5.871-5.75 4.436-9.635l-3.473-9.396c-1.437-3.886-5.75-5.87-9.635-4.436-3.886 1.437-5.871 5.75-4.436 9.635z"/><path d="m160.392 54.768c1.483 1.741 3.592 2.636 5.713 2.636 1.72 0 3.448-.588 4.86-1.791 3.152-2.687 3.531-7.42.845-10.573l-6.527-7.661c-2.687-3.153-7.421-3.532-10.573-.845s-3.531 7.42-.845 10.573z"/><path d="m341.383 255.622c-3.152 2.687-3.531 7.42-.845 10.573l6.526 7.66c1.483 1.741 3.592 2.636 5.713 2.636 1.72 0 3.448-.588 4.86-1.791 3.152-2.687 3.531-7.42.845-10.573l-6.526-7.66c-2.686-3.154-7.42-3.533-10.573-.845z"/><path d="m122.204 88.27 8.794 5c1.17.666 2.443.981 3.7.981 2.609 0 5.145-1.363 6.526-3.794 2.048-3.601.788-8.18-2.813-10.227l-8.794-5c-3.6-2.05-8.18-.789-10.227 2.813-2.046 3.601-.786 8.18 2.814 10.227z"/><path d="m389.916 223.23-8.794-5c-3.601-2.05-8.18-.789-10.227 2.813-2.048 3.601-.788 8.18 2.813 10.227l8.794 5c1.17.666 2.443.981 3.7.981 2.609 0 5.145-1.363 6.526-3.794 2.048-3.601.789-8.18-2.812-10.227z"/><path d="m106.716 137.603 10 1.737c.435.075.867.111 1.293.111 3.579 0 6.747-2.57 7.381-6.217.709-4.081-2.024-7.965-6.105-8.674l-10-1.737c-4.088-.714-7.965 2.025-8.674 6.105-.71 4.082 2.024 7.966 6.105 8.675z"/><path d="m404.009 189.114c3.579 0 6.747-2.571 7.381-6.218.708-4.081-2.025-7.964-6.106-8.673l-10-1.736c-4.091-.712-7.964 2.026-8.673 6.106-.708 4.081 2.025 7.964 6.106 8.673l10 1.736c.434.076.866.112 1.292.112z"/><path d="m107.991 189.288c.426 0 .858-.036 1.293-.111l10-1.737c4.081-.709 6.814-4.593 6.105-8.674-.709-4.08-4.584-6.809-8.674-6.105l-10 1.737c-4.081.709-6.814 4.593-6.105 8.674.634 3.646 3.802 6.216 7.381 6.216z"/><path d="m386.61 133.406c.634 3.647 3.802 6.218 7.381 6.218.426 0 .858-.036 1.292-.111l10-1.736c4.081-.709 6.814-4.592 6.106-8.673-.709-4.082-4.593-6.813-8.673-6.106l-10 1.736c-4.08.708-6.814 4.591-6.106 8.672z"/><path d="m119.392 233.957c1.382 2.431 3.917 3.794 6.526 3.794 1.256 0 2.53-.315 3.7-.981l8.794-5c3.601-2.047 4.86-6.626 2.813-10.227-2.046-3.601-6.625-4.862-10.227-2.813l-8.794 5c-3.6 2.047-4.86 6.626-2.812 10.227z"/><path d="m377.422 94.751c1.256 0 2.53-.315 3.7-.981l8.794-5c3.601-2.047 4.86-6.626 2.813-10.227-2.047-3.6-6.625-4.862-10.227-2.813l-8.794 5c-3.601 2.047-4.86 6.626-2.813 10.227 1.382 2.431 3.918 3.794 6.527 3.794z"/><path d="m159.569 277.258c2.121 0 4.229-.895 5.713-2.636l6.527-7.661c2.687-3.153 2.308-7.887-.845-10.573-3.153-2.688-7.888-2.309-10.573.845l-6.527 7.661c-2.687 3.153-2.308 7.887.845 10.573 1.412 1.203 3.141 1.791 4.86 1.791z"/><path d="m341.383 56.378c1.412 1.203 3.141 1.791 4.86 1.791 2.121 0 4.229-.896 5.713-2.636l6.526-7.66c2.687-3.153 2.308-7.887-.845-10.573-3.154-2.687-7.888-2.306-10.573.845l-6.526 7.66c-2.686 3.153-2.308 7.886.845 10.573z"/><path d="m301.652 33.827c.857.316 1.735.467 2.6.467 3.05 0 5.917-1.874 7.036-4.901l3.474-9.396c1.436-3.885-.55-8.199-4.435-9.636-3.882-1.433-8.199.55-9.636 4.435l-3.474 9.396c-1.435 3.884.551 8.199 4.435 9.635z"/><path d="m406.5 301.5h-87.837v-8c0-.533-.057-1.052-.163-1.553v-6.047c0-13.49 5.866-26.007 16.094-34.34 28.956-23.593 45.688-58.52 45.904-95.824 0 0 0 0 0-.001.192-33.261-12.707-64.659-36.322-88.411-23.61-23.747-54.926-36.825-88.178-36.824-68.648.001-124.498 55.852-124.498 124.5 0 37.295 16.514 72.311 45.307 96.069 10.608 8.754 16.693 21.45 16.693 34.835v6.042c-.106.501-.163 1.021-.163 1.553v8h-87.837c-18.472.001-33.5 15.029-33.5 33.501v74c0 18.472 15.028 33.5 33.5 33.5h3v40c0 16.267 13.233 29.5 29.5 29.5h236c16.267 0 29.5-13.233 29.5-29.5v-40h3c18.472 0 33.5-15.028 33.5-33.5v-74c0-18.472-15.028-33.5-33.5-33.5zm-131.115 36.525h-38.77c-15.593 0-28.278-12.686-28.278-28.278v-8.747h95.326v8.747c0 15.593-12.685 28.278-28.278 28.278zm-65.177 5.975c7.313 5.651 16.471 9.025 26.407 9.025h38.77c9.936 0 19.094-3.374 26.407-9.025h61.488c3.206 0 6.149 2.107 7.144 5.086l9.334 28.482c-1.864-.37-3.788-.568-5.758-.568h-236c-2.023 0-3.999.206-5.909.595l9.474-28.47c1.023-3.065 4.011-5.125 7.435-5.125zm-23.854-104.501c-25.328-20.898-39.854-51.697-39.854-84.499 0-60.378 49.121-109.499 109.498-109.5 29.229 0 56.767 11.506 77.541 32.4 20.778 20.899 32.128 48.511 31.959 77.748-.19 32.811-14.908 63.53-40.379 84.283-13.739 11.195-21.619 27.95-21.619 45.969v.1h-95v-.096c0-17.877-8.072-34.791-22.146-46.405zm-80.854 188.001c-10.201 0-18.5-8.299-18.5-18.5v-74c0-10.201 8.299-18.5 18.5-18.5h88.367c.696 4.424 2.07 8.625 4.004 12.5h-48.871c-9.888 0-18.594 6.179-21.666 15.382l-17.21 51.72c-.203.61-1.624 7.432-1.624 10.398v21zm283 55c0 7.995-6.505 14.5-14.5 14.5h-236c-7.995 0-14.5-6.505-14.5-14.5v-76c0-7.995 6.505-14.5 14.5-14.5h236c7.995 0 14.5 6.505 14.5 14.5zm36.5-73.5c0 10.201-8.299 18.5-18.5 18.5h-3v-21c0-3.612-.656-7.073-1.849-10.274-.01-.03-.014-.062-.024-.092l-16.963-51.759c-3.022-9.053-11.816-15.375-21.385-15.375h-49.15c1.934-3.875 3.308-8.076 4.004-12.5h88.367c10.201 0 18.5 8.299 18.5 18.5z"/></g></g></svg>