<svg id="Layer_1" enable-background="new 0 0 512 512" height="512" viewBox="0 0 512 512" width="512" xmlns="http://www.w3.org/2000/svg"><g><g><path d="m307.29 271.032v28c0 8.547 6.953 15.5 15.5 15.5h28c2.929 0 5.661-.832 8-2.249 2.339 1.417 5.071 2.249 8 2.249h28c2.929 0 5.661-.832 8-2.249 2.339 1.417 5.071 2.249 8 2.249h28c8.547 0 15.5-6.953 15.5-15.5v-28c0-8.547-6.953-15.5-15.5-15.5h-28c-2.929 0-5.661.832-8 2.249-2.339-1.417-5.071-2.249-8-2.249h-28c-2.929 0-5.661.832-8 2.249-2.339-1.417-5.071-2.249-8-2.249h-28c-8.547 0-15.5 6.953-15.5 15.5zm103.5-.5h28c.275 0 .5.225.5.5v28c0 .275-.225.5-.5.5h-28c-.275 0-.5-.225-.5-.5v-28c0-.275.224-.5.5-.5zm-44 0h28c.275 0 .5.225.5.5v28c0 .275-.225.5-.5.5h-28c-.275 0-.5-.225-.5-.5v-28c0-.275.224-.5.5-.5zm-44.5.5c0-.275.225-.5.5-.5h28c.275 0 .5.225.5.5v28c0 .275-.225.5-.5.5h-28c-.275 0-.5-.225-.5-.5z"/><path d="m367.827 230.546c1.468 1.495 3.408 2.245 5.351 2.245 1.896 0 3.791-.714 5.251-2.145l68.448-67.115c2.957-2.9 3.004-7.648.104-10.606-2.901-2.959-7.65-3.002-10.606-.104l-63.098 61.869-39.053-39.766c-2.9-2.954-7.65-2.999-10.605-.096-2.955 2.902-2.998 7.65-.096 10.605z"/><path d="m265 145.5v-60c0-4.143-3.357-7.5-7.5-7.5h-220c-4.142 0-7.5 3.357-7.5 7.5v60c0 4.143 3.358 7.5 7.5 7.5h220c4.142 0 7.5-3.357 7.5-7.5zm-124-52.5v9.5c0 4.136-3.364 7.5-7.5 7.5s-7.5-3.364-7.5-7.5v-9.5zm-50.007 0v9.5c0 4.136-3.364 7.5-7.5 7.5s-7.5-3.364-7.5-7.5v-9.5zm159.007 45h-205v-45h15.993v9.5c0 12.406 10.093 22.5 22.5 22.5s22.5-10.094 22.5-22.5v-9.5h5.007v9.5c0 12.406 10.093 22.5 22.5 22.5s22.5-10.094 22.5-22.5v-9.5h94z"/><path d="m257.5 393c4.143 0 7.5-3.357 7.5-7.5v-60c0-4.143-3.357-7.5-7.5-7.5h-220c-4.142 0-7.5 3.357-7.5 7.5v60c0 4.143 3.358 7.5 7.5 7.5zm-116.5-60v9.5c0 4.136-3.364 7.5-7.5 7.5s-7.5-3.364-7.5-7.5v-9.5zm-50.007 0v9.5c0 4.136-3.364 7.5-7.5 7.5s-7.5-3.364-7.5-7.5v-9.5zm-45.993 0h15.993v9.5c0 12.406 10.093 22.5 22.5 22.5s22.5-10.094 22.5-22.5v-9.5h5.007v9.5c0 12.406 10.093 22.5 22.5 22.5s22.5-10.094 22.5-22.5v-9.5h94v45h-205z"/><path d="m504.499 467h-334.499v-44h95.5c16.267 0 29.5-13.233 29.5-29.5v-51.782c23.496 18.261 52.635 28.282 82.5 28.282 25.55 0 50.411-7.196 71.897-20.811 3.498-2.217 4.538-6.851 2.32-10.35-2.218-3.498-6.853-4.538-10.35-2.32-19.079 12.09-41.165 18.481-63.867 18.481-56.476 0-105.7-40.091-117.046-95.33-.64-3.11-2.547-5.847-5.234-7.507l-26.978-16.664 26.978-16.663c2.687-1.659 4.595-4.396 5.235-7.51 5.378-26.185 19.687-50.127 40.29-67.416 20.851-17.497 47.331-27.401 74.563-27.891 31.831-.561 62.121 11.589 85.35 34.243 23.208 22.634 36.113 52.597 36.339 84.369.22 31.014-11.389 60.487-32.688 82.993-2.848 3.009-2.717 7.755.292 10.603 3.009 2.847 7.756 2.718 10.603-.292 23.975-25.332 37.041-58.505 36.794-93.41-.254-35.81-14.768-69.549-40.866-95.001-26.119-25.473-60.233-39.164-96.092-38.503-28.984.521-57.209 10.522-80.039 28.259v-51.78c0-3.612-.656-7.073-1.849-10.274-.01-.03-.014-.062-.024-.092l-16.963-51.759c-3.072-9.196-11.778-15.375-21.665-15.375h-158.631c-4.142 0-7.5 3.357-7.5 7.5s3.358 7.5 7.5 7.5h158.631c3.424 0 6.412 2.06 7.423 5.086l9.334 28.482c-1.863-.37-3.787-.568-5.757-.568h-236c-2.023 0-4 .206-5.909.595l9.473-28.47c1.024-3.065 4.012-5.125 7.436-5.125h23.276c4.142 0 7.5-3.357 7.5-7.5s-3.358-7.5-7.5-7.5h-23.276c-9.888 0-18.593 6.179-21.666 15.382l-17.21 51.72c-.203.61-1.624 7.432-1.624 10.398v76c0 8.736 3.82 16.594 9.874 22-6.054 5.406-9.874 13.264-9.874 22v76c0 8.736 3.82 16.594 9.874 22-6.054 5.406-9.874 13.264-9.874 22v33.99c0 4.143 3.358 7.5 7.5 7.5s7.5-3.357 7.5-7.5v-33.99c0-7.995 6.505-14.5 14.5-14.5h231.681c5.26 9.048 11.576 17.49 18.819 25.125v65.375c0 7.995-6.505 14.5-14.5 14.5h-236c-7.995 0-14.5-6.505-14.5-14.5v-9.64c0-4.143-3.358-7.5-7.5-7.5s-7.5 3.357-7.5 7.5v9.64c0 16.267 13.233 29.5 29.5 29.5h95.5v44h-117.5c-4.142 0-7.5 3.357-7.5 7.5v30c0 4.143 3.358 7.5 7.5 7.5h496.999c4.143 0 7.5-3.357 7.5-7.5v-30c0-4.143-3.357-7.5-7.5-7.5zm-290.321-222.557 21.948 13.557h-191.126v-45h15.993v9.5c0 12.406 10.093 22.5 22.5 22.5s22.5-10.094 22.5-22.5v-9.5h5.007v9.5c0 12.406 10.093 22.5 22.5 22.5s22.5-10.094 22.5-22.5v-9.5h80.124l-21.947 13.557c-3.123 1.93-4.987 5.274-4.986 8.945-.001 3.671 1.864 7.014 4.987 8.941zm-138.185-31.443h15v9.5c0 4.136-3.364 7.5-7.5 7.5s-7.5-3.364-7.5-7.5zm50.007 0h15v9.5c0 4.136-3.364 7.5-7.5 7.5s-7.5-3.364-7.5-7.5zm-111-59.5v-76c0-7.995 6.505-14.5 14.5-14.5h236c7.995 0 14.5 6.505 14.5 14.5v65.401c-7.229 7.625-13.527 16.062-18.782 25.099h-231.718c-7.995 0-14.5-6.505-14.5-14.5zm14.5 134.5c-7.995 0-14.5-6.505-14.5-14.5v-76c0-7.995 6.505-14.5 14.5-14.5h224.2c-2.079 4.885-3.871 9.892-5.357 15h-210.843c-4.142 0-7.5 3.357-7.5 7.5v60c0 4.143 3.358 7.5 7.5 7.5h210.821c1.485 5.108 3.27 10.118 5.346 15zm125.5 135v14h-15v-14zm-140 59h80v15h-80zm95 15v-15h22.5c4.142 0 7.5-3.357 7.5-7.5v-22.5h15v22.5c0 4.143 3.358 7.5 7.5 7.5h22.5v15zm387 0h-297v-15h297z"/></g></g></svg>